<svg width="233" height="37" viewBox="0 0 233 37" fill="none" xmlns="http://www.w3.org/2000/svg">
<g opacity="0.2">
<path d="M4.75812 25.9999H0.0493164V11.4545H4.90727C6.33246 11.4545 7.55642 11.7457 8.57915 12.3281C9.60187 12.9057 10.3855 13.7367 10.93 14.821C11.4792 15.9005 11.7539 17.1955 11.7539 18.7059C11.7539 20.2211 11.4769 21.5231 10.9229 22.6122C10.3737 23.7012 9.5782 24.5392 8.53653 25.1264C7.49487 25.7087 6.2354 25.9999 4.75812 25.9999ZM2.24392 24.0823H4.63738C5.74534 24.0823 6.66627 23.874 7.40017 23.4573C8.13407 23.0359 8.68331 22.4275 9.0479 21.632C9.41248 20.8318 9.59477 19.8565 9.59477 18.7059C9.59477 17.5648 9.41248 16.5965 9.0479 15.8011C8.68805 15.0056 8.15064 14.4019 7.43568 13.99C6.72072 13.5781 5.83293 13.3721 4.77233 13.3721H2.24392V24.0823Z" fill="#303542"/>
<path d="M16.6775 11.4545V25.9999H14.4829V11.4545H16.6775Z" fill="#303542"/>
<path d="M19.4971 25.9999V24.5369L27.1463 13.3437H19.4332V11.4545H29.8309V12.9175L22.1818 24.1107H29.8948V25.9999H19.4971Z" fill="#303542"/>
<path d="M31.5248 11.4545H34.0177L37.8174 18.0667H37.9737L41.7734 11.4545H44.2663L38.9893 20.2897V25.9999H36.8018V20.2897L31.5248 11.4545Z" fill="#303542"/>
<path d="M46.3384 11.4545H49.0017L53.6324 22.7613H53.8029L58.4336 11.4545H61.0969V25.9999H59.0088V15.4744H58.8739L54.5841 25.9786H52.8512L48.5614 15.4673H48.4264V25.9999H46.3384V11.4545Z" fill="#303542"/>
<path d="M64.2876 25.9999V11.4545H73.4069V13.3437H66.4822V17.7755H72.9311V19.6576H66.4822V24.1107H73.4921V25.9999H64.2876Z" fill="#303542"/>
<path d="M125.204 25.9999H122.874L128.109 11.4545H130.644L135.879 25.9999H133.549L129.437 14.0965H129.323L125.204 25.9999ZM125.594 20.3039H133.151V22.1505H125.594V20.3039Z" fill="#303542"/>
<path d="M145.795 15.2755C145.719 14.6032 145.407 14.0823 144.858 13.713C144.308 13.3389 143.617 13.1519 142.784 13.1519C142.187 13.1519 141.671 13.2466 141.235 13.436C140.8 13.6207 140.461 13.8764 140.22 14.2031C139.983 14.525 139.865 14.892 139.865 15.3039C139.865 15.6496 139.945 15.9479 140.106 16.1988C140.272 16.4497 140.487 16.6604 140.752 16.8309C141.022 16.9966 141.311 17.1363 141.619 17.2499C141.927 17.3588 142.223 17.4488 142.507 17.5198L143.927 17.8891C144.391 18.0028 144.867 18.1567 145.355 18.3508C145.842 18.5449 146.295 18.8006 146.711 19.1178C147.128 19.4351 147.464 19.8281 147.72 20.2968C147.98 20.7656 148.11 21.3266 148.11 21.98C148.11 22.8039 147.897 23.5354 147.471 24.1747C147.05 24.8139 146.437 25.3181 145.632 25.6874C144.832 26.0568 143.863 26.2414 142.727 26.2414C141.638 26.2414 140.696 26.0686 139.9 25.7229C139.105 25.3773 138.482 24.8872 138.032 24.2528C137.582 23.6136 137.334 22.856 137.287 21.98H139.488C139.531 22.5056 139.701 22.9436 140 23.294C140.303 23.6396 140.689 23.8977 141.157 24.0681C141.631 24.2338 142.149 24.3167 142.713 24.3167C143.333 24.3167 143.885 24.2196 144.367 24.0255C144.855 23.8266 145.239 23.552 145.518 23.2016C145.797 22.8465 145.937 22.4322 145.937 21.9587C145.937 21.5279 145.814 21.1751 145.568 20.9005C145.326 20.6259 144.997 20.3986 144.581 20.2187C144.169 20.0388 143.702 19.8801 143.181 19.7428L141.463 19.2741C140.298 18.9568 139.375 18.4905 138.693 17.8749C138.016 17.2594 137.677 16.445 137.677 15.4318C137.677 14.5937 137.904 13.8621 138.359 13.2371C138.814 12.6121 139.429 12.1268 140.206 11.7812C140.982 11.4308 141.858 11.2556 142.833 11.2556C143.818 11.2556 144.687 11.4284 145.44 11.7741C146.198 12.1197 146.794 12.5956 147.23 13.2016C147.665 13.803 147.893 14.4943 147.912 15.2755H145.795Z" fill="#303542"/>
<path d="M158.666 15.2755C158.59 14.6032 158.278 14.0823 157.729 13.713C157.179 13.3389 156.488 13.1519 155.655 13.1519C155.058 13.1519 154.542 13.2466 154.106 13.436C153.671 13.6207 153.332 13.8764 153.091 14.2031C152.854 14.525 152.736 14.892 152.736 15.3039C152.736 15.6496 152.816 15.9479 152.977 16.1988C153.143 16.4497 153.358 16.6604 153.624 16.8309C153.893 16.9966 154.182 17.1363 154.49 17.2499C154.798 17.3588 155.094 17.4488 155.378 17.5198L156.798 17.8891C157.262 18.0028 157.738 18.1567 158.226 18.3508C158.714 18.5449 159.166 18.8006 159.582 19.1178C159.999 19.4351 160.335 19.8281 160.591 20.2968C160.851 20.7656 160.981 21.3266 160.981 21.98C160.981 22.8039 160.768 23.5354 160.342 24.1747C159.921 24.8139 159.308 25.3181 158.503 25.6874C157.703 26.0568 156.734 26.2414 155.598 26.2414C154.509 26.2414 153.567 26.0686 152.771 25.7229C151.976 25.3773 151.353 24.8872 150.903 24.2528C150.454 23.6136 150.205 22.856 150.158 21.98H152.359C152.402 22.5056 152.572 22.9436 152.871 23.294C153.174 23.6396 153.56 23.8977 154.028 24.0681C154.502 24.2338 155.02 24.3167 155.584 24.3167C156.204 24.3167 156.756 24.2196 157.239 24.0255C157.726 23.8266 158.11 23.552 158.389 23.2016C158.669 22.8465 158.808 22.4322 158.808 21.9587C158.808 21.5279 158.685 21.1751 158.439 20.9005C158.197 20.6259 157.868 20.3986 157.452 20.2187C157.04 20.0388 156.573 19.8801 156.053 19.7428L154.334 19.2741C153.169 18.9568 152.246 18.4905 151.564 17.8749C150.887 17.2594 150.548 16.445 150.548 15.4318C150.548 14.5937 150.776 13.8621 151.23 13.2371C151.685 12.6121 152.3 12.1268 153.077 11.7812C153.853 11.4308 154.729 11.2556 155.704 11.2556C156.689 11.2556 157.558 11.4284 158.311 11.7741C159.069 12.1197 159.665 12.5956 160.101 13.2016C160.536 13.803 160.764 14.4943 160.783 15.2755H158.666Z" fill="#303542"/>
<path d="M165.799 11.4545V25.9999H163.604V11.4545H165.799Z" fill="#303542"/>
<path d="M176.928 15.2755C176.852 14.6032 176.54 14.0823 175.99 13.713C175.441 13.3389 174.75 13.1519 173.917 13.1519C173.32 13.1519 172.804 13.2466 172.368 13.436C171.933 13.6207 171.594 13.8764 171.353 14.2031C171.116 14.525 170.997 14.892 170.997 15.3039C170.997 15.6496 171.078 15.9479 171.239 16.1988C171.405 16.4497 171.62 16.6604 171.885 16.8309C172.155 16.9966 172.444 17.1363 172.752 17.2499C173.059 17.3588 173.355 17.4488 173.64 17.5198L175.06 17.8891C175.524 18.0028 176 18.1567 176.488 18.3508C176.975 18.5449 177.427 18.8006 177.844 19.1178C178.261 19.4351 178.597 19.8281 178.853 20.2968C179.113 20.7656 179.243 21.3266 179.243 21.98C179.243 22.8039 179.03 23.5354 178.604 24.1747C178.183 24.8139 177.569 25.3181 176.765 25.6874C175.964 26.0568 174.996 26.2414 173.86 26.2414C172.771 26.2414 171.828 26.0686 171.033 25.7229C170.238 25.3773 169.615 24.8872 169.165 24.2528C168.715 23.6136 168.467 22.856 168.419 21.98H170.621C170.664 22.5056 170.834 22.9436 171.132 23.294C171.435 23.6396 171.821 23.8977 172.29 24.0681C172.764 24.2338 173.282 24.3167 173.845 24.3167C174.466 24.3167 175.017 24.2196 175.5 24.0255C175.988 23.8266 176.372 23.552 176.651 23.2016C176.93 22.8465 177.07 22.4322 177.07 21.9587C177.07 21.5279 176.947 21.1751 176.701 20.9005C176.459 20.6259 176.13 20.3986 175.713 20.2187C175.301 20.0388 174.835 19.8801 174.314 19.7428L172.595 19.2741C171.431 18.9568 170.507 18.4905 169.826 17.8749C169.149 17.2594 168.81 16.445 168.81 15.4318C168.81 14.5937 169.037 13.8621 169.492 13.2371C169.946 12.6121 170.562 12.1268 171.338 11.7812C172.115 11.4308 172.991 11.2556 173.966 11.2556C174.951 11.2556 175.82 11.4284 176.573 11.7741C177.33 12.1197 177.927 12.5956 178.363 13.2016C178.798 13.803 179.025 14.4943 179.044 15.2755H176.928Z" fill="#303542"/>
<path d="M181.148 13.3437V11.4545H192.406V13.3437H187.867V25.9999H185.68V13.3437H181.148Z" fill="#303542"/>
<path d="M194.403 25.9999H192.073L197.308 11.4545H199.843L205.078 25.9999H202.748L198.636 14.0965H198.522L194.403 25.9999ZM194.794 20.3039H202.35V22.1505H194.794V20.3039Z" fill="#303542"/>
<path d="M218.918 11.4545V25.9999H216.901L209.508 15.3323H209.373V25.9999H207.178V11.4545H209.209L216.61 22.1363H216.745V11.4545H218.918Z" fill="#303542"/>
<path d="M221.402 13.3437V11.4545H232.659V13.3437H228.121V25.9999H225.934V13.3437H221.402Z" fill="#303542"/>
</g>
<path fill-rule="evenodd" clip-rule="evenodd" d="M98.53 1.04769C94.4426 1.49406 90.7365 3.03693 87.5389 6.81163C78.8947 17.0004 83.0702 27.8781 96.056 29.9256C103.625 31.1192 101.464 34.2146 98.9798 34.9424C97.9726 35.2335 97.9531 35.6119 98.9113 35.8836C103.233 37.0772 118.273 29.0135 116.914 15.5061C116.346 9.82945 113.872 5.94801 109.404 3.70648C107.546 2.77493 107.331 3.2213 109.14 4.27899C110.528 5.08439 111.878 6.27793 112.748 7.46177C114.225 9.48012 115.241 12.2651 115.486 14.9918C116.19 22.939 111.653 29.9353 105.228 33.1278C104.554 33.4577 102.187 34.4378 102.05 34.4378C101.923 34.4378 104.554 30.469 97.5032 29.4404C94.0123 28.9261 92.5358 28.5574 90.7952 27.7423C84.6738 24.8797 83.0017 18.2522 86.6002 11.1491C91.1081 2.25094 97.865 1.37761 104.524 2.65849C106.558 3.04663 106.773 2.51293 104.72 1.90161C102.383 1.18354 100.114 0.873026 98.53 1.04769Z" fill="#CBCCCF"/>
<path fill-rule="evenodd" clip-rule="evenodd" d="M98.9113 35.8836C97.9531 35.6119 97.9726 35.2335 98.9798 34.9424C101.464 34.2146 103.625 31.1192 96.056 29.9256C83.0702 27.8781 78.8947 17.0004 87.5389 6.81163C90.7365 3.03693 94.4426 1.49406 98.53 1.04769C100.114 0.873026 102.383 1.18354 104.72 1.90161C105.281 2.0687 105.673 2.23001 105.904 2.36826C105.905 2.36835 105.904 2.36817 105.904 2.36826C106.279 2.59232 106.233 2.75607 105.805 2.78558C105.805 2.7856 105.805 2.78557 105.805 2.78558C105.531 2.80438 105.1 2.76843 104.524 2.65849C97.865 1.37761 91.1081 2.25094 86.6002 11.1491C83.0017 18.2522 84.6738 24.8797 90.7952 27.7423C92.5358 28.5574 94.0123 28.9261 97.5032 29.4404C103.044 30.2487 102.606 32.8727 102.226 33.9595C102.213 33.9957 102.201 34.0301 102.188 34.0627C102.154 34.1535 102.122 34.2301 102.097 34.29C102.075 34.3439 102.058 34.3843 102.05 34.4091C102.044 34.4279 102.044 34.4378 102.05 34.4378C102.081 34.4378 102.22 34.3897 102.427 34.3113C102.462 34.2979 102.499 34.2837 102.538 34.2687C103.3 33.9734 104.728 33.3722 105.228 33.1278C111.653 29.9353 116.19 22.939 115.486 14.9918C115.241 12.2651 114.225 9.48012 112.748 7.46177C111.878 6.27793 110.528 5.08439 109.14 4.27899C108.701 4.0223 108.381 3.80162 108.175 3.6279C108.152 3.60869 108.131 3.59007 108.111 3.57203C107.761 3.25683 107.834 3.12132 108.289 3.24443C108.315 3.25145 108.342 3.25932 108.371 3.26804C108.621 3.34471 108.967 3.48753 109.404 3.70648C113.872 5.94801 116.346 9.82945 116.914 15.5061C118.273 29.0135 103.233 37.0772 98.9113 35.8836ZM117.312 15.466C118.008 22.3907 114.497 27.9016 110.304 31.5109C108.206 33.3165 105.926 34.658 103.887 35.474C102.868 35.882 101.903 36.1613 101.045 36.2996C100.193 36.437 99.422 36.4396 98.8049 36.2692L98.8022 36.2685C98.546 36.1958 98.3216 36.1074 98.154 35.9955C98.0014 35.8937 97.7892 35.6968 97.8094 35.3937C97.8283 35.1095 98.043 34.9318 98.1968 34.8353C98.3702 34.7264 98.6 34.6358 98.8674 34.5585C99.4355 34.392 99.9781 34.0911 100.36 33.7291C100.747 33.362 100.921 32.9823 100.889 32.6461C100.859 32.3205 100.621 31.8938 99.8569 31.4581C99.0939 31.0229 97.8637 30.6156 95.9937 30.3207C89.4043 29.2818 84.963 25.9844 83.3115 21.5615C81.6597 17.1379 82.8486 11.7219 87.2337 6.55309M117.312 15.466C116.733 9.67552 114.193 5.66133 109.583 3.34894C109.108 3.11083 108.721 2.952 108.435 2.86971C108.295 2.82955 108.155 2.80068 108.031 2.79939C107.969 2.79876 107.887 2.80438 107.803 2.8353C107.714 2.86794 107.599 2.9387 107.535 3.07655C107.472 3.2101 107.488 3.33785 107.512 3.41913C107.536 3.49962 107.576 3.56686 107.611 3.61705C107.682 3.71819 107.783 3.81886 107.896 3.91592C108.127 4.1139 108.475 4.3539 108.938 4.6243L108.939 4.625C110.284 5.40497 111.59 6.56248 112.425 7.69843C113.855 9.65295 114.849 12.3667 115.087 15.0271C115.776 22.7962 111.34 29.6432 105.052 32.769C104.726 32.9278 103.978 33.2506 103.285 33.5368C103.08 33.6216 102.881 33.7025 102.701 33.7742C102.811 33.364 102.888 32.8225 102.764 32.2412C102.472 30.8736 101.147 29.568 97.5615 29.0447C94.0817 28.532 92.6516 28.17 90.9648 27.38C88.0062 25.9965 86.1428 23.7171 85.4406 20.9379C84.7362 18.1501 85.1904 14.817 86.957 11.3299C89.1744 6.95306 91.9216 4.58966 94.8974 3.46065C97.8848 2.32723 101.155 2.41773 104.449 3.05129C104.971 3.15092 105.396 3.19559 105.709 3.18988C105.863 3.18707 106.011 3.17193 106.138 3.13346C106.238 3.10305 106.459 3.01715 106.536 2.77615C106.619 2.51616 106.463 2.31624 106.386 2.23567C106.293 2.13839 106.167 2.05475 106.034 1.98168C105.762 1.8324 105.36 1.67507 104.836 1.51875C102.472 0.792557 100.145 0.467237 98.4863 0.650085C94.3131 1.10586 90.5071 2.68902 87.2337 6.55309M108.263 3.1538C108.263 3.15379 108.264 3.15432 108.264 3.15536Z" fill="#CBCCCF"/>
</svg>
